<?xml version="1.0" encoding="UTF-8" standalone="no"?>
<!-- Created with Inkscape (http://www.inkscape.org/) -->

<svg
   width="17.004444mm"
   height="15.881289mm"
   viewBox="0 0 17.004444 15.881289"
   version="1.1"
   id="svg5"
   inkscape:version="1.1 (c68e22c387, 2021-05-23)"
   sodipodi:docname="CO2_offset.svg"
   xmlns:inkscape="http://www.inkscape.org/namespaces/inkscape"
   xmlns:sodipodi="http://sodipodi.sourceforge.net/DTD/sodipodi-0.dtd"
   xmlns="http://www.w3.org/2000/svg"
   xmlns:svg="http://www.w3.org/2000/svg">
  <sodipodi:namedview
     id="namedview7"
     pagecolor="#ffffff"
     bordercolor="#666666"
     borderopacity="1.0"
     inkscape:pageshadow="2"
     inkscape:pageopacity="0.0"
     inkscape:pagecheckerboard="0"
     inkscape:document-units="mm"
     showgrid="false"
     inkscape:snap-nodes="false"
     fit-margin-top="0"
     fit-margin-left="0"
     fit-margin-right="0"
     fit-margin-bottom="0"
     inkscape:zoom="5.3664983"
     inkscape:cx="7.8263325"
     inkscape:cy="22.826803"
     inkscape:window-width="1827"
     inkscape:window-height="1057"
     inkscape:window-x="-8"
     inkscape:window-y="-8"
     inkscape:window-maximized="1"
     inkscape:current-layer="layer1" />
  <defs
     id="defs2" />
  <g
     inkscape:label="Layer 1"
     inkscape:groupmode="layer"
     id="layer1"
     transform="translate(-34.914097,-189.94963)">
    <path
       id="path2757-1-9-5-7-9-0-0"
       style="fill:none;stroke:#3895bd;stroke-width:1.98047;stroke-linecap:round;stroke-linejoin:round;stroke-miterlimit:4;stroke-dasharray:none;stroke-opacity:1"
       d="m 189.24378,768.85564 5.63394,-0.0176"
       transform="scale(0.26458333)"
       sodipodi:nodetypes="cc" />
    <path
       id="path29175"
       style="fill:none;stroke:#3895bd;stroke-width:1.98047;stroke-linecap:round;stroke-linejoin:round;stroke-miterlimit:4;stroke-dasharray:none;stroke-opacity:1"
       d="m 177.03681,750.13054 c -1.22102,0.73803 -2.78333,1.33818 -4.94725,1.59222 -2.70671,0.31713 -5.24202,0.0133 -6.51953,-0.78125 -1.8663,2.49739 -4.29518,4.85297 -7.15841,7.0779 -0.27108,4.93157 -0.16693,8.01946 1.26583,10.92012 l 17.52579,-0.0523"
       transform="scale(0.26458333)"
       sodipodi:nodetypes="cccccc" />
    <path
       id="path29171"
       style="fill:none;stroke:#3895bd;stroke-width:1.98047;stroke-linecap:round;stroke-linejoin:round;stroke-miterlimit:4;stroke-dasharray:none;stroke-opacity:1"
       d="m 176.96112,744.96401 c -1.20867,0.54887 -2.48174,1.00382 -4.4049,1.26656 0.002,0.01 0.004,0.0193 0.006,0.0293 1.96283,-0.111 3.33826,0.0451 4.46955,0.50123"
       transform="scale(0.26458333)"
       sodipodi:nodetypes="cccc" />
    <path
       id="path29167"
       style="fill:none;stroke:#3895bd;stroke-width:1.98047;stroke-linecap:round;stroke-linejoin:round;stroke-miterlimit:4;stroke-dasharray:none;stroke-opacity:1"
       d="m 176.90259,737.47767 c -1.23797,0.31119 -2.21205,0.49899 -3.75069,0.52243 -0.90581,1.20425 -4.29341,1.97921 -8.16211,1.86719 -0.76538,-0.0234 -1.5252,-0.0813 -2.25781,-0.17188 0.0242,0.10684 0.0352,0.2138 0.0332,0.32031 -0.0372,1.3113 -1.58462,2.37172 -4.30758,2.48228 -0.008,0.90842 -0.0113,1.81642 -0.0117,2.72656 1.41165,-0.67005 2.72342,-1.19116 4.60446,-1.44321 0.76024,-1.30108 4.033,-2.46494 7.88672,-2.80469 0.72178,-0.0633 1.04748,-0.0296 1.74924,-0.0298 1.70433,-9.4e-4 3.17958,0.18471 4.27561,0.50787"
       transform="scale(0.26458333)"
       sodipodi:nodetypes="ccccccccccc" />
    <path
       id="path29163"
       style="fill:none;stroke:#3895bd;stroke-width:1.98047;stroke-linecap:round;stroke-linejoin:round;stroke-miterlimit:4;stroke-dasharray:none;stroke-opacity:1"
       d="m 132.94903,768.96981 18.93155,0.22553 c 2.1727,-4.09706 2.22431,-5.9864 2.44418,-9.70102 l -3.70401,-4.90879 c -1.26068,0.55827 -1.64618,0.0793 -3.31048,0.0883 -3.29778,-7.8e-4 -6.15448,-1.17525 -6.87891,-2.82813 -4.22199,-0.31592 -7.28802,-1.81426 -7.29102,-3.5625 0.001,-1.11681 1.26652,-2.17102 3.42969,-2.85742 0.0728,-1.96501 2.4409,-3.53247 5.33789,-3.5332 2.85105,-1.7e-4 5.19975,1.51892 5.33594,3.45117 6.61195,1.2461 3.26064,-0.51052 -0.8075,-4.70848 -1.43975,0.67836 -2.53062,0.86665 -4.87414,0.90965 -4.21749,0.0776 -7.65273,-1.06868 -7.67383,-2.56054 -0.0142,-1.11596 1.9126,-2.15267 4.84961,-2.60938 -0.3191,-0.36167 -0.47885,-0.74574 -0.46875,-1.12695 0.0409,-1.49146 2.61708,-2.59242 5.75391,-2.45899 0.80565,0.0341 1.59993,0.14925 2.33008,0.33789 1.4593,-0.53561 3.32317,-0.78693 5.24414,-0.70703 1.49991,0.0715 2.32741,0.69518 3.57423,1.13269 0,-0.7834 -0.48815,-1.855 -0.47915,-2.6547 -1.32199,0.52831 -2.02826,0.76406 -3.94251,0.77006 -3.90957,-1.9e-4 -7.07908,-1.20936 -7.08008,-2.70117 0.001,-0.6819 0.67786,-1.33843 1.89453,-1.83789 -0.0203,-0.07 -0.0307,-0.14044 -0.0312,-0.21094 -0.002,-0.97796 1.8752,-1.77119 4.19141,-1.77149 0.28611,10e-5 0.57145,0.0125 0.85156,0.0371 1.06946,-0.51054 2.70995,-0.90917 4.66992,-1.13476 -0.56133,-0.44585 -0.86228,-0.97157 -0.86328,-1.50977 -0.001,-1.49271 2.25172,-2.70313 5.03125,-2.70312 l -4.4e-4,9e-5 c 2.77953,-10e-6 5.03225,1.21041 5.03125,2.70312 -8e-4,0.58142 -0.35081,1.1472 -0.99804,1.61328 0.50749,0.0739 0.99049,0.16012 1.44335,0.25782 3.23962,-0.33329 5.97089,0.57626 6.13477,2.04296 0.11595,1.0486 -1.12573,2.14919 -3.17969,2.81836 1.59734,0.25653 2.89266,0.72769 3.64063,1.32422 0.4452,-0.0294 0.89507,-0.0444 1.3457,-0.0449 1.65463,-3e-5 2.80795,0.19111 4.13274,0.52383"
       transform="scale(0.26458333)"
       sodipodi:nodetypes="ccccccccccccccccccccccccsccccccccccccc" />
    <path
       id="path29161"
       style="fill:none;stroke:#3895bd;stroke-width:1.98047;stroke-linecap:round;stroke-linejoin:round;stroke-miterlimit:4;stroke-dasharray:none;stroke-opacity:1"
       d="m 158.03516,750.79687 c 1.21036,0.33426 2.34178,0.34477 3.9256,0.31075 l -3.79084,3.57792 c -0.0542,-1.28372 -0.10622,-2.57279 -0.13476,-3.88867 v 0"
       transform="scale(0.26458333)" />
    <path
       id="path29159"
       style="fill:none;stroke:#3895bd;stroke-width:1.98047;stroke-linecap:round;stroke-linejoin:round;stroke-miterlimit:4;stroke-dasharray:none;stroke-opacity:1"
       d="m 155.26076,750.0716 c -0.10314,2.05148 0.18202,3.69439 -0.0947,5.78581 -0.91537,-0.77539 -1.79083,-2.36038 -2.48257,-2.68852 1.24019,-0.66919 1.67251,-1.19413 1.68178,-2.11812 0.33454,-2.53717 -3.3512,-2.08627 -3.95858,-2.47689 -1.11261,-0.94165 5.90723,-0.86267 4.85406,1.49772 h 1e-5 v 0"
       transform="scale(0.26458333)" />
    <path
       id="path29157"
       style="fill:none;stroke:#3895bd;stroke-width:1.98047;stroke-linecap:round;stroke-linejoin:round;stroke-miterlimit:4;stroke-dasharray:none;stroke-opacity:1"
       d="m 149.17346,739.5915 c 0.83135,0.17192 1.33473,0.23228 2.21912,0.26982 0.0163,6.7e-4 0.0325,10e-4 0.0488,0.002 0.28584,1.15422 2.06323,2.15072 4.42773,2.48242 -0.26689,2.74469 -0.11688,3.32867 -0.11688,3.32867 -2.16972,0.57456 -2.85437,-3.38158 -6.57877,-6.08291 v 0"
       transform="scale(0.26458333)" />
    <path
       id="path29155"
       style="fill:none;stroke:#3895bd;stroke-width:1.98047;stroke-linecap:round;stroke-linejoin:round;stroke-miterlimit:4;stroke-dasharray:none;stroke-opacity:1"
       d="m 158.24386,732.59801 c 0.55449,-0.74571 4.1756,1.64262 5.70174,1.71521 0,0 -3.52133,0.73381 -4.97094,0.87813 -0.91076,-0.79996 -1.01158,-2.21573 -0.7308,-2.59334 v 0"
       transform="scale(0.26458333)" />
    <path
       id="path29153"
       style="fill:none;stroke:#3895bd;stroke-width:1.98047;stroke-linecap:round;stroke-linejoin:round;stroke-miterlimit:4;stroke-dasharray:none;stroke-opacity:1"
       d="m 161.6476,729.75785 c -1.28927,-0.46555 -2.99142,0.73905 -3.60952,0.28365 0.0186,-0.62245 -0.13547,-1.85609 -0.11667,-2.46325 2.09199,-0.58677 2.84022,0.46328 3.72619,2.1796 v 0"
       transform="scale(0.26458333)" />
    <path
       id="rect1837-1"
       style="fill:none;stroke:#3895bd;stroke-width:0.524;stroke-linecap:round;stroke-linejoin:round;stroke-miterlimit:4;stroke-dasharray:none;stroke-opacity:1"
       d="m 48.493418,205.56894 3.163146,-4.66178 H 49.91745 v -10.69553 h -2.995823 v 10.69553 h -1.591355 z"
       sodipodi:nodetypes="cccccccc" />
  </g>
</svg>
