<?xml version="1.0" encoding="UTF-8" standalone="no"?>
<!-- Created with Inkscape (http://www.inkscape.org/) -->

<svg
   xmlns:osb="http://www.openswatchbook.org/uri/2009/osb"
   xmlns:dc="http://purl.org/dc/elements/1.1/"
   xmlns:cc="http://creativecommons.org/ns#"
   xmlns:rdf="http://www.w3.org/1999/02/22-rdf-syntax-ns#"
   xmlns:svg="http://www.w3.org/2000/svg"
   xmlns="http://www.w3.org/2000/svg"
   xmlns:xlink="http://www.w3.org/1999/xlink"
   xmlns:sodipodi="http://sodipodi.sourceforge.net/DTD/sodipodi-0.dtd"
   xmlns:inkscape="http://www.inkscape.org/namespaces/inkscape"
   width="4.2333336mm"
   height="4.2333298mm"
   viewBox="0 0 4.2333335 4.2333299"
   version="1.1"
   id="svg1578"
   inkscape:version="0.92.3 (2405546, 2018-03-11)"
   sodipodi:docname="daRta_favicon_16.svg">
  <defs
     id="defs1572">
    <linearGradient
       inkscape:collect="always"
       id="linearGradient3690">
      <stop
         style="stop-color:#0075a7;stop-opacity:1;"
         offset="0"
         id="stop3686" />
      <stop
         style="stop-color:#ade6ff;stop-opacity:1"
         offset="1"
         id="stop3688" />
    </linearGradient>
    <linearGradient
       id="linearGradient3631"
       osb:paint="solid">
      <stop
         style="stop-color:#2ec1ff;stop-opacity:1;"
         offset="0"
         id="stop3629" />
    </linearGradient>
    <linearGradient
       inkscape:collect="always"
       xlink:href="#linearGradient3690"
       id="linearGradient3692"
       x1="30.576181"
       y1="188.05515"
       x2="117.98385"
       y2="113.75423"
       gradientUnits="userSpaceOnUse"
       gradientTransform="matrix(0.06626185,0,0,0.06626185,29.298827,175.72396)" />
  </defs>
  <sodipodi:namedview
     id="base"
     pagecolor="#ffffff"
     bordercolor="#666666"
     borderopacity="1.0"
     inkscape:pageopacity="0.0"
     inkscape:pageshadow="2"
     inkscape:zoom="11.2"
     inkscape:cx="13.101227"
     inkscape:cy="23.969579"
     inkscape:document-units="px"
     inkscape:current-layer="layer1"
     showgrid="false"
     fit-margin-top="0"
     fit-margin-left="0"
     fit-margin-right="0"
     fit-margin-bottom="0"
     inkscape:window-width="1858"
     inkscape:window-height="1057"
     inkscape:window-x="-8"
     inkscape:window-y="-8"
     inkscape:window-maximized="1" />
  <metadata
     id="metadata1575">
    <rdf:RDF>
      <cc:Work
         rdf:about="">
        <dc:format>image/svg+xml</dc:format>
        <dc:type
           rdf:resource="http://purl.org/dc/dcmitype/StillImage" />
        <dc:title></dc:title>
      </cc:Work>
    </rdf:RDF>
  </metadata>
  <g
     inkscape:label="Layer 1"
     inkscape:groupmode="layer"
     id="layer1"
     transform="translate(-31.37799,-183.96071)">
    <path
       style="opacity:1;fill:url(#linearGradient3692);fill-opacity:1;stroke:none;stroke-width:0.00742463;stroke-linecap:square;stroke-linejoin:miter;stroke-miterlimit:4;stroke-dasharray:none;stroke-dashoffset:0;stroke-opacity:1;paint-order:fill markers stroke"
       d="m 32.404255,183.96071 c -0.568549,0 -1.026265,0.45772 -1.026265,1.02626 v 2.1808 c 0,0.56855 0.457716,1.02627 1.026265,1.02627 h 2.180804 c 0.568548,0 1.026265,-0.45772 1.026265,-1.02627 v -2.1808 c 0,-0.56854 -0.457717,-1.02626 -1.026265,-1.02626 z m 1.117635,0.26802 c 1.598239,0 1.441179,1.65195 0.720087,2.7422 -0.180155,-0.10246 -0.355394,-0.21826 -0.525821,-0.34714 0.428626,-0.69885 0.560355,-1.73457 -0.194266,-1.73457 -0.377264,0 -0.613334,0.16532 -0.613334,0.37743 h -0.660495 c 0,-0.55447 0.498613,-1.03792 1.273829,-1.03792 z m -1.273829,1.69841 h 0.660495 c 0.543893,0.6373 1.1602,1.07807 1.849395,1.32099 v 0.6605 c -0.769253,-0.25324 -1.365414,-0.65487 -1.849395,-1.15264 v 0.49214 c 0.114942,0 0.229983,-0.041 0.340525,-0.11202 0.165282,0.13626 0.340648,0.26385 0.52734,0.38176 -0.269503,0.24013 -0.569681,0.39075 -0.867865,0.39075 h -0.660495 v -0.66049 z"
       id="rect1554"
       inkscape:connector-curvature="0" />
  </g>
</svg>
